<svg width="415" height="435" viewBox="0 0 415 435" fill="none" xmlns="http://www.w3.org/2000/svg">
<path d="M348 320.5C310 346.1 263.834 304.167 245.5 280C243.333 291.667 225.4 317.7 171 328.5C116.6 339.3 92.3333 293.333 87 269C40 268 10.0001 259 3.50014 218C-1.69986 185.2 27.3335 157.667 42.5002 148C28.3335 136.833 7.50018 108.1 37.5002 82.5C67.5002 56.9 89.0002 69.5 96.0002 79C100.167 56 123 8.6 181 3C239 -2.6 265.834 43.6667 272 67.5C297.334 50.5 357.7 29.7 396.5 82.5C435.3 135.3 392.333 185.5 366 204C384 220.5 395.5 288.5 348 320.5Z" stroke="white" stroke-width="5"/>
<path d="M268 360.5C271.6 348.5 257.5 338.5 250 335C230.5 331.5 230 341 226.5 352.5C223 364 238 373.5 245.5 375C253 376.5 263.5 375.5 268 360.5Z" stroke="white" stroke-width="5"/>
<path d="M214.5 412.5C231.7 406.5 223.667 394.333 217.5 389C194 383.5 191 395.5 189 401.5C187 407.5 193 420 214.5 412.5Z" stroke="white" stroke-width="5"/>
<path d="M150.5 418.5C153.3 414.9 159.667 417 162.5 418.5C166 421 166 424.5 164.5 427.5C162.872 430.756 158.5 433.5 152.5 431C146.5 428.5 147 423 150.5 418.5Z" stroke="white" stroke-width="5"/>
</svg>
